<svg width="17" height="17" xmlns="http://www.w3.org/2000/svg" xmlns:xlink="http://www.w3.org/1999/xlink" overflow="hidden"><defs><clipPath id="clip0"><rect x="848" y="477" width="17" height="17"/></clipPath><clipPath id="clip1"><rect x="849" y="477" width="16" height="16"/></clipPath><clipPath id="clip2"><rect x="849" y="477" width="16" height="16"/></clipPath><clipPath id="clip3"><rect x="849" y="477" width="16" height="16"/></clipPath><clipPath id="clip4"><rect x="849" y="477" width="16" height="16"/></clipPath></defs><g clip-path="url(#clip0)" transform="translate(-848 -477)"><g clip-path="url(#clip1)"><g clip-path="url(#clip2)"><g clip-path="url(#clip3)"><g clip-path="url(#clip4)"><path d="M24.6346 6.13462C26.0578 6.13462 27.2115 9.59581 27.2115 13.8654 27.2115 18.135 26.0578 21.5962 24.6346 21.5962 23.2114 21.5962 22.0577 18.135 22.0577 13.8654 22.0577 9.59581 23.2114 6.13462 24.6346 6.13462Z" stroke="#FFFFFF" stroke-width="0.512819" stroke-miterlimit="8" fill="none" fill-rule="evenodd" transform="matrix(1.00088 0 0 1 832.386 471.154)"/><path d="M17.9357 9.98965C18.6522 8.74862 22.2237 9.46915 25.9128 11.599 29.6018 13.7289 32.0116 16.4616 31.295 17.7027 30.5785 18.9437 27.0071 18.2232 23.318 16.0933 19.6289 13.9634 17.2192 11.2307 17.9357 9.98965Z" stroke="#FFFFFF" stroke-width="0.512819" stroke-miterlimit="8" fill="none" fill-rule="evenodd" transform="matrix(1.00088 0 0 1 832.386 471.154)"/><path d="M17.9357 17.7027C17.2192 16.4616 19.6289 13.7289 23.318 11.599 27.0071 9.46915 30.5785 8.74862 31.295 9.98965 32.0116 11.2307 29.6018 13.9634 25.9128 16.0933 22.2237 18.2232 18.6522 18.9437 17.9357 17.7027Z" stroke="#FFFFFF" stroke-width="0.512819" stroke-miterlimit="8" fill="none" fill-rule="evenodd" transform="matrix(1.00088 0 0 1 832.386 471.154)"/><path d="M23.2308 13.8462C23.2308 13.0815 23.8507 12.4615 24.6154 12.4615 25.3801 12.4615 26 13.0815 26 13.8462 26 14.6108 25.3801 15.2308 24.6154 15.2308 23.8507 15.2308 23.2308 14.6108 23.2308 13.8462Z" fill="#FFFFFF" fill-rule="evenodd" transform="matrix(1.00088 0 0 1 832.386 471.154)"/></g></g></g></g></g></svg>