<svg viewBox="0 0 96 96" xmlns="http://www.w3.org/2000/svg" xmlns:xlink="http://www.w3.org/1999/xlink" id="Icons_Radioactive" overflow="hidden"><path d="M42.5 35.9 29.1 12.5C17.7 19.1 10 31.4 10 45.4L37 45.4C37 41.4 39.2 37.8 42.5 35.9Z" fill="#FFFFFF"/><path d="M59 45.4 86 45.4C86 31.4 78.3 19.1 66.9 12.5L53.5 35.9C56.8 37.8 59 41.4 59 45.4Z" fill="#FFFFFF"/><path d="M48 56.4C46 56.4 44.1 55.9 42.5 54.9L29.1 78.4C34.7 81.6 41.1 83.5 48 83.5 54.9 83.5 61.4 81.7 66.9 78.4L53.5 55C51.9 55.9 50 56.4 48 56.4Z" fill="#FFFFFF"/><circle cx="48" cy="45.4" r="7" fill="#FFFFFF"/></svg>